<?xml version="1.0" encoding="UTF-8"?>
<svg width="103px" height="123px" viewBox="0 0 103 123" version="1.1" xmlns="http://www.w3.org/2000/svg" xmlns:xlink="http://www.w3.org/1999/xlink">
    <title>apple-logo</title>
    <g id="Wireframe" stroke="none" stroke-width="1" fill="none" fill-rule="evenodd">
        <g id="Sign-Up---Carrier-Photo-Copy-3" transform="translate(-137.000000, -150.000000)" fill="#FFFFFF" fill-rule="nonzero">
            <g id="apple-logo" transform="translate(137.000000, 150.000000)">
                <path d="M91.317692,80.5871544 C87.9159203,75.7195857 86.2161999,70.235627 86.2161999,64.1399284 C86.2161999,58.5836356 87.8203547,53.4931228 91.0219308,48.8717484 C92.7472907,46.3640799 95.557799,43.4637405 99.4521606,40.1686636 C96.8892423,37.0226466 94.326065,34.5640619 91.7610748,32.7934263 C87.1275691,29.5978088 81.8771605,28 76.0116619,28 C72.5125118,28 68.2475422,28.8354589 63.2206379,30.5084435 C58.3895264,32.1801364 54.8644778,33.016887 52.6473048,33.016887 C50.9703751,33.016887 47.5696394,32.2798541 42.4430258,30.80398 C37.2672049,29.3286226 32.9043389,28.5915897 29.3552046,28.5915897 C20.8765445,28.5915897 13.8766903,32.1323442 8.35590109,39.2123033 C2.78564568,46.3914635 0,55.5861619 0,66.7974319 C0,78.6969092 3.62398103,91.0624249 10.8698712,103.896304 C18.2141758,116.631499 25.6333271,123 33.1260303,123 C35.6400004,123 38.8936325,122.163766 42.8858906,120.492073 C46.8794436,118.870756 50.3791117,118.058289 53.3864488,118.058289 C56.5895787,118.058289 60.3119742,118.844922 64.5510452,120.417672 C69.0364113,121.989648 72.4879082,122.776539 74.9029459,122.776539 C81.2123453,122.776539 87.5476432,117.957538 93.9057319,108.32031 C98.0456116,102.174235 101.077552,96.0281614 103,89.8813122 C98.6127893,88.5526897 94.7192046,85.4549815 91.317692,80.5871544 Z" id="Path"></path>
                <path d="M65.8691207,23.4067559 C69.0136857,20.2957659 71.3339626,16.8879722 72.8315243,13.1849315 C74.2779613,9.48137194 75,6.12287256 75,3.11021171 C75,2.9132939 74.9892507,2.666044 74.9622463,2.36949979 C74.939699,2.07321503 74.9263279,1.82700291 74.9263279,1.62930677 C74.8759897,1.48090494 74.8141157,1.20926733 74.7396571,0.814653383 C74.6651985,0.420039435 74.6030622,0.148401826 74.5519375,0 C65.7692308,2.02573682 59.5317498,5.67974263 55.838708,10.9638335 C52.0971632,16.2972188 50.1499659,22.6421752 50,30 C53.3435583,29.7034558 55.937287,29.2844541 57.7845944,28.7409195 C60.4813591,27.8518057 63.1728803,26.0733188 65.8691207,23.4067559 Z" id="Path"></path>
            </g>
        </g>
    </g>
</svg>