<?xml version="1.0" encoding="UTF-8"?>
<svg width="13px" height="11px" viewBox="0 0 13 11" version="1.1" xmlns="http://www.w3.org/2000/svg" xmlns:xlink="http://www.w3.org/1999/xlink">
    <title>delivery-truck-silhouette</title>
    <g id="Symbols" stroke="none" stroke-width="1" fill="none" fill-rule="evenodd">
        <g id="Active-Order" transform="translate(-27.000000, -70.000000)" fill="#FFFFFF" fill-rule="nonzero">
            <g id="Group-4" transform="translate(27.000000, 64.000000)">
                <g id="delivery-truck-silhouette" transform="translate(6.500000, 11.500000) scale(-1, 1) translate(-6.500000, -11.500000) translate(0.000000, 6.000000)">
                    <path d="M12.8572591,0.148419387 C12.7620547,0.0495825829 12.6489583,0 12.518734,0 L4.81489771,0 C4.68451536,0 4.57160341,0.0495825829 4.47637265,0.148419387 C4.38111554,0.247393009 4.33344746,0.364645419 4.33344746,0.500039801 L4.33344746,2.00004975 L3.12967692,2.00004975 C2.99423528,2.00004975 2.84746291,2.03389835 2.68949158,2.10159554 C2.5314939,2.16940218 2.40487968,2.25258709 2.30962257,2.35156071 L0.819975301,3.89844426 C0.754810479,3.96614145 0.698446729,4.0442094 0.650699597,4.13281227 C0.603084218,4.22119623 0.567958983,4.30082389 0.545376592,4.37101115 C0.522846903,4.44138996 0.506456883,4.53762724 0.496522739,4.66013343 C0.486562245,4.7825849 0.48018542,4.87241913 0.477682121,4.92974557 C0.475284224,4.98698992 0.475284224,5.08599091 0.477682121,5.22663907 C0.480211771,5.36734196 0.481476595,5.45840755 0.481476595,5.50013682 L0.481476595,8.00006219 C0.351120602,8.00006219 0.2382877,8.04950796 0.142951539,8.14859103 C0.0476680802,8.24734574 0,8.36465288 0,8.50007463 C0,8.57808784 0.00996049436,8.64718057 0.0300395862,8.70699708 C0.0501450285,8.76692305 0.0839527382,8.81505537 0.13169987,8.85158559 C0.179315249,8.8881158 0.220711907,8.91796933 0.255784441,8.94147454 C0.290962378,8.9648703 0.349882127,8.9804401 0.432622742,8.98829342 C0.515363357,8.99614673 0.571753457,9.00140051 0.601872095,9.0040274 C0.631990732,9.00646275 0.695890729,9.00646275 0.793677487,9.0040274 C0.891569648,9.00140051 0.947959748,9.00008707 0.963032242,9.00008707 L1.44448249,9.00008707 C1.44448249,9.55200798 1.63259881,10.0233982 2.00867335,10.4140663 C2.38487964,10.8046523 2.83874089,11 3.37041522,11 C3.90203684,11 4.3559508,10.8046523 4.73207804,10.4140663 C5.10828433,10.0234256 5.2962689,9.55200798 5.2962689,9.00008707 L8.18526022,9.00008707 C8.18526022,9.55200798 8.37337654,10.0233982 8.74947743,10.4140663 C9.12552562,10.8046523 9.57946593,11 10.1111403,11 C10.64292,11 11.0965704,10.8046523 11.4728031,10.4140663 C11.8490094,10.0234256 12.0370203,9.55200798 12.0370203,9.00008707 C12.0519874,9.00008707 12.1084565,9.00140051 12.2061906,9.0040274 C12.30403,9.00646275 12.3679827,9.00646275 12.398075,9.0040274 C12.42822,9.00140051 12.4847419,8.99614673 12.5674298,8.98829342 C12.650144,8.9804401 12.7090111,8.96489766 12.744189,8.94147454 C12.779367,8.91805142 12.8206319,8.8881158 12.8682736,8.85158559 C12.915968,8.81505537 12.9498811,8.76692305 12.9698812,8.70699708 C12.9901711,8.64715321 13,8.57806048 13,8.50007463 L13,0.500121892 C13,0.364700146 12.9524898,0.247584553 12.8572591,0.148419387 Z M4.04735993,9.70319108 C3.85687206,9.90102887 3.63110086,10.000194 3.37030982,10.000194 C3.10949243,10.000194 2.88377392,9.90113832 2.69318065,9.70319108 C2.50258738,9.50540801 2.40733028,9.27093056 2.40733028,9.00014179 C2.40733028,8.72932566 2.50269279,8.49473875 2.69318065,8.2968736 C2.88374757,8.09909054 3.10946608,8.00003483 3.37030982,8.00003483 C3.63110086,8.00003483 3.85684571,8.09900845 4.04735993,8.2968736 C4.23803225,8.49473875 4.33334206,8.72932566 4.33334206,9.00014179 C4.33334206,9.27093056 4.23803225,9.50540801 4.04735993,9.70319108 Z M4.33334206,5.00004229 L1.44437708,5.00004229 L1.44437708,4.76575638 C1.44437708,4.69803182 1.46690677,4.64073274 1.51204521,4.59383178 L2.97908373,3.07045344 C3.02419581,3.02355247 3.07945284,3.00018408 3.14464401,3.00018408 L4.33334206,3.00018408 L4.33334206,5.00004229 Z M10.788164,9.70319108 C10.5976498,9.90102887 10.3719049,10.000194 10.1111403,10.000194 C9.85027016,10.000194 9.62444626,9.90113832 9.43393204,9.70319108 C9.24339147,9.50540801 9.14805531,9.27093056 9.14805531,9.00014179 C9.14805531,8.72932566 9.24336512,8.49473875 9.43393204,8.2968736 C9.62444626,8.09909054 9.85027016,8.00003483 10.1111403,8.00003483 C10.3719049,8.00003483 10.5976498,8.09900845 10.788164,8.2968736 C10.9787046,8.49484821 11.0741198,8.72932566 11.0741198,9.00014179 C11.0741198,9.27093056 10.978889,9.50540801 10.788164,9.70319108 Z" id="Shape"></path>
                </g>
            </g>
        </g>
    </g>
</svg>