<?xml version="1.0" encoding="UTF-8"?>
<svg width="26px" height="26px" viewBox="0 0 26 26" version="1.1" xmlns="http://www.w3.org/2000/svg" xmlns:xlink="http://www.w3.org/1999/xlink">
    <title>information-button</title>
    <g id="Symbols" stroke="none" stroke-width="1" fill="none" fill-rule="evenodd">
        <g id="Home-Bottom-Toolbar-w/-Info" transform="translate(-314.000000, -21.000000)" fill="#FFFFFF" fill-rule="nonzero">
            <g id="information-button" transform="translate(314.000000, 21.000000)">
                <path d="M24.256971,6.47447632 C23.0944378,4.4828588 21.5175358,2.90596396 19.5258499,1.74349537 C17.5338083,0.581086073 15.3592167,0 13.000415,0 C10.6418505,0 8.46660677,0.581086073 6.47492087,1.74349537 C4.4831164,2.9057861 2.90621437,4.48268093 1.74368119,6.47447632 C0.581088723,8.46639029 0,10.6416241 0,13 C0,15.3584944 0.581266589,17.5333726 1.74350332,19.5254051 C2.90597721,21.5170226 4.48287924,23.0939175 6.47468372,24.2565046 C8.46660677,25.4188546 10.6416727,26 13.0001779,26 C15.3586831,26 17.5339861,25.4188546 19.5257906,24.2565046 C21.5174765,23.0943325 23.0943192,21.5170226 24.2567338,19.5254051 C25.4189706,17.5335504 26,15.3583759 26,13 C26,10.641387 25.4189706,8.46609385 24.256971,6.47447632 Z M10.8336495,3.24977767 C10.8336495,3.09171467 10.8843414,2.96205083 10.9860215,2.86054901 C11.0875238,2.75910648 11.2174254,2.7081777 11.3753706,2.7081777 L14.6255781,2.7081777 C14.7834046,2.7081777 14.9133062,2.75910648 15.0145713,2.86054901 C15.1160143,2.96205083 15.1671212,3.09171467 15.1671212,3.24977767 L15.1671212,5.95819252 C15.1671212,6.11613695 15.1160143,6.24597865 15.0145713,6.34736189 C14.9133062,6.44886371 14.7834639,6.49961463 14.6255781,6.49961463 L11.3753706,6.49961463 C11.2174254,6.49961463 11.0875831,6.44886371 10.9860215,6.34736189 C10.8843414,6.24603794 10.8336495,6.11613695 10.8336495,5.95819252 L10.8336495,3.24977767 Z M17.3335903,21.1250074 C17.3335903,21.2828333 17.2824241,21.4127342 17.1812182,21.5139989 C17.0801903,21.6156193 16.9502887,21.6663702 16.7921064,21.6663702 L9.20854578,21.6663702 C9.05042277,21.6663702 8.92075835,21.6156193 8.81919677,21.5139989 C8.71769449,21.4127342 8.66694335,21.2828925 8.66694335,21.1248295 L8.66694335,18.4164147 C8.66694335,18.2581145 8.71769449,18.1286879 8.81919677,18.0270675 C8.92075835,17.9258028 9.05060064,17.8746961 9.20854578,17.8746961 L10.8336495,17.8746961 L10.8336495,12.4582222 L9.20854578,12.4582222 C9.05042277,12.4582222 8.92081764,12.4075305 8.81919677,12.3059694 C8.71769449,12.2045269 8.66694335,12.0746852 8.66694335,11.9166222 L8.66694335,9.20838521 C8.66694335,9.05032221 8.71769449,8.92065838 8.81919677,8.81903798 C8.92087693,8.71747687 9.05071922,8.66678524 9.20854578,8.66678524 L14.6255781,8.66678524 C14.7834046,8.66678524 14.9133062,8.71747687 15.0145713,8.81903798 C15.1160143,8.92065838 15.1671212,9.05032221 15.1671212,9.20838521 L15.1671212,17.8751112 L16.7916914,17.8751112 C16.949933,17.8751112 17.0797753,17.9258028 17.1812182,18.0272453 C17.2822462,18.1287471 17.3333531,18.2585296 17.3333531,18.4165926 L17.3333531,21.1250667 L17.3335903,21.1250667 L17.3335903,21.1250074 Z" id="Shape"></path>
            </g>
        </g>
    </g>
</svg>