<?xml version="1.0" encoding="UTF-8"?>
<svg width="11px" height="16px" viewBox="0 0 11 16" version="1.1" xmlns="http://www.w3.org/2000/svg" xmlns:xlink="http://www.w3.org/1999/xlink">
    <title>map-marker</title>
    <g id="Symbols" stroke="none" stroke-width="1" fill="none" fill-rule="evenodd">
        <g id="Active-Order" transform="translate(-27.000000, -16.000000)" fill="#FFFFFF" fill-rule="nonzero">
            <g id="Group-5" transform="translate(27.000000, 13.000000)">
                <g id="map-marker" transform="translate(0.000000, 3.000000)">
                    <path d="M9.38875802,1.5624715 C8.31462189,0.520714377 7.01826885,0 5.50003755,0 C3.981731,0 2.68552847,0.520823832 1.61131708,1.5624715 C0.537143319,2.60408268 0,3.86102851 0,5.33330901 C0,6.09033694 0.11814444,6.71178649 0.354395694,7.19791306 L4.27536132,15.2605943 C4.38282008,15.4895744 4.54938869,15.6701388 4.77495427,15.8019592 C5.00055748,15.9339256 5.24222682,16 5.5001128,16 C5.75792354,16 5.99970576,15.9339256 6.22527133,15.8019592 C6.45087454,15.6701388 6.62082945,15.4895744 6.73543708,15.2605943 L10.645416,7.19791306 C10.8817802,6.71178649 11,6.09030045 11,5.33330901 C11.000188,3.86102851 10.4631575,2.60422862 9.38875802,1.5624715 Z M7.44430372,7.21874601 C6.90727328,7.73946039 6.25920964,7.99992703 5.50003755,7.99992703 C4.74086546,7.99992703 4.09280182,7.73946039 3.55562088,7.21874601 C3.01851518,6.69784921 2.7499059,6.06943102 2.7499059,5.33327252 C2.7499059,4.597187 3.01851518,3.96865936 3.55562088,3.4479085 C4.09280182,2.92708466 4.74097834,2.66661802 5.50003755,2.66661802 C6.25920964,2.66661802 6.90727328,2.92708466 7.44430372,3.4479085 C7.98137179,3.96862287 8.24998108,4.597187 8.24998108,5.33327252 C8.24998108,6.06935805 7.98140942,6.69773975 7.44430372,7.21874601 Z" id="Shape"></path>
                </g>
            </g>
        </g>
    </g>
</svg>