<?xml version="1.0" encoding="UTF-8"?>
<svg width="35px" height="27px" viewBox="0 0 35 27" version="1.1" xmlns="http://www.w3.org/2000/svg" xmlns:xlink="http://www.w3.org/1999/xlink">
    <title>message-icon</title>
    <g id="Symbols" stroke="none" stroke-width="1" fill="none" fill-rule="evenodd">
        <g id="Contact-User-" transform="translate(-231.000000, -20.000000)" fill="#FFFFFF" fill-rule="nonzero">
            <g id="Group" transform="translate(85.000000, 11.000000)">
                <g id="Group-3" transform="translate(120.000000, 0.000000)">
                    <g id="speech-bubbles-comment-option" transform="translate(26.250000, 9.375000)">
                        <path d="M20.5493428,17.8653401 C22.6541859,17.0115005 24.3158182,15.8492753 25.5334229,14.3782062 C26.7508915,12.9074645 27.3596939,11.3058111 27.3596939,9.57318076 C27.3596939,7.84048488 26.7508915,6.2387006 25.5329465,4.7678934 C24.3154779,3.2970862 22.6541178,2.13473005 20.5490025,1.28069395 C18.4438871,0.426788837 16.1542593,0 13.6797789,0 C11.2055026,0 8.91587487,0.427050791 6.81062337,1.28069395 C4.70557605,2.13466456 3.04414793,3.29702072 1.82661127,4.7678934 C0.608938484,6.23896255 0,7.84048488 0,9.57324625 C0,11.0564308 0.460566304,12.4531049 1.38026964,13.7618935 C2.29990491,15.0704201 3.5630422,16.173771 5.16927314,17.0710951 C5.03982182,17.3705087 4.90703552,17.6443818 4.77098232,17.8940241 C4.63486105,18.1432735 4.47308092,18.3830271 4.28509746,18.6138087 C4.09725011,18.8446558 3.95166842,19.0252732 3.84794401,19.1557264 C3.74428767,19.2865725 3.57590566,19.4708572 3.34259381,19.7072709 C3.10935002,19.944143 2.96029723,20.0999402 2.89563963,20.1745316 C2.89563963,20.1620233 2.86970853,20.1902489 2.81784633,20.2588154 C2.76591607,20.3273819 2.73678612,20.358358 2.73038842,20.3525295 C2.7238546,20.3457842 2.69792349,20.3769567 2.65259511,20.4455232 C2.60726673,20.5141552 2.58453448,20.5484057 2.58453448,20.5484057 L2.53587113,20.6415959 C2.51667803,20.6792518 2.50347427,20.7160564 2.49707657,20.7537123 C2.49054274,20.7908443 2.48727583,20.8316437 2.48727583,20.8751281 C2.48727583,20.9186125 2.49367353,20.9589534 2.5068773,20.9965438 C2.5328084,21.158366 2.60726673,21.2890157 2.73032036,21.3892131 C2.85330592,21.4887557 2.98595609,21.5384615 3.12861118,21.5384615 L3.18693914,21.5384615 C3.83453607,21.4512308 4.39168041,21.3515572 4.8579638,21.2392444 C6.85295708,20.7408766 8.65377337,19.9427677 10.2600724,18.8459656 C11.425883,19.0454437 12.5658986,19.1451172 13.679915,19.1451172 C16.1543954,19.1459686 18.4442954,18.7193107 20.5493428,17.8653401 Z" id="Path"></path>
                        <path d="M33.0196101,18.5103192 C33.9234262,17.2129895 34.375,15.8198391 34.375,14.3298245 C34.375,12.8025643 33.897217,11.3739297 32.943122,10.0456165 C31.988559,8.71743371 30.6903346,7.61226721 29.0488499,6.73076923 C29.3412964,7.66184087 29.4876534,8.60537115 29.4876534,9.56155576 C29.4876534,11.2250782 29.0618876,12.8018468 28.2086847,14.2918615 C27.3560834,15.7814196 26.1343471,17.0973394 24.5436761,18.2397513 C23.067403,19.2826246 21.3875405,20.083174 19.5039551,20.6420518 C17.6209045,21.2005383 15.654613,21.4801076 13.6056823,21.4801076 C13.2240443,21.4801076 12.6640233,21.4555165 11.9260204,21.4059428 C14.4838241,23.0444176 17.487251,23.8640789 20.9358331,23.8640789 C22.0304013,23.8640789 23.1501759,23.7645402 24.2956248,23.5659194 C25.8735254,24.658823 27.6426462,25.4530452 29.6023186,25.949956 C30.0604447,26.0620185 30.6076954,26.1611006 31.2440039,26.2479197 C31.3966457,26.2603784 31.5369184,26.216871 31.6640865,26.117528 C31.7913214,26.0182502 31.8741612,25.8820531 31.9121378,25.7084148 C31.9061872,25.6338586 31.9121378,25.5929604 31.9313267,25.5870246 C31.9501144,25.581154 31.9469051,25.5405819 31.9216988,25.4662214 C31.8965594,25.3916 31.8837222,25.3543545 31.8837222,25.3543545 L31.8361178,25.2614691 C31.8228794,25.2369432 31.8013505,25.2025678 31.7693244,25.1592561 C31.737499,25.1162052 31.712159,25.0846999 31.6929032,25.066175 C31.6741824,25.0476501 31.6457668,25.0164056 31.6073222,24.9732896 C31.5693456,24.9302388 31.5437381,24.9020601 31.530901,24.8896014 C31.4673169,24.8150452 31.3210268,24.6599319 31.0920306,24.4239351 C30.862767,24.1882646 30.6976223,24.0051682 30.5957943,23.8748416 C30.4939662,23.7444498 30.3507516,23.5645496 30.1662843,23.3346192 C29.9818839,23.1051453 29.8226229,22.8660828 29.6889694,22.6176927 C29.5553827,22.369433 29.4249385,22.0961908 29.2977035,21.7984227 C30.8757379,20.9037486 32.116262,19.8081054 33.0196101,18.5103192 Z" id="Path"></path>
                    </g>
                </g>
            </g>
        </g>
    </g>
</svg>