<?xml version="1.0" encoding="UTF-8"?>
<svg width="34px" height="34px" viewBox="0 0 34 34" version="1.1" xmlns="http://www.w3.org/2000/svg" xmlns:xlink="http://www.w3.org/1999/xlink">
    <title>phone-icon</title>
    <g id="Symbols" stroke="none" stroke-width="1" fill="none" fill-rule="evenodd">
        <g id="Contact-User-" transform="translate(-111.000000, -17.000000)" fill="#FFFFFF" fill-rule="nonzero">
            <g id="Group" transform="translate(85.000000, 11.000000)">
                <g id="telephone-handle-silhouette" transform="translate(26.250000, 6.875000)">
                    <path d="M33.6782059,25.1814992 C33.5827427,24.9045209 32.9753714,24.4964913 31.856512,23.9583805 C31.5534141,23.7887656 31.1215206,23.5582738 30.5626786,23.2658539 C30.0033329,22.973434 29.4956229,22.7039744 29.0404723,22.4577176 C28.5843982,22.2115416 28.1571225,21.973046 27.7578897,21.7425541 C27.6940796,21.696391 27.4943372,21.5619442 27.1587466,21.3383242 C26.8228201,21.115351 26.5395369,20.9498593 26.3073857,20.84193 C26.0757383,20.7346473 25.8478692,20.6806422 25.6241141,20.6806422 C25.3045599,20.6806422 24.9054111,20.9000582 24.4261638,21.3383242 C23.9469165,21.7771562 23.5072986,22.253824 23.1079818,22.769783 C22.708581,23.2854995 22.2849996,23.7621673 21.8379932,24.2007567 C21.3903151,24.6395078 21.0224836,24.8586812 20.7351703,24.8586812 C20.5909259,24.8586812 20.4110822,24.819956 20.1955553,24.7435566 C19.9801123,24.6666721 19.8162211,24.6007826 19.7037139,24.5476668 C19.5922142,24.4934191 19.4008679,24.3860557 19.1290033,24.2239595 C18.856635,24.0623484 18.7051701,23.9738221 18.673265,23.9583805 C16.4839915,22.7886201 14.6063798,21.4498108 13.0400941,19.942276 C11.4743123,18.4338518 10.0837562,16.626055 8.86926563,14.5177538 C8.85331311,14.4869515 8.76120829,14.3407011 8.59353891,14.0792452 C8.42561764,13.8175468 8.31369811,13.6331371 8.25778033,13.5251269 C8.20186254,13.4175209 8.13393839,13.2597096 8.05417579,13.0520163 C7.97441318,12.844323 7.93436396,12.6713126 7.93436396,12.5326618 C7.93436396,12.2558452 8.16214916,11.9017398 8.61763561,11.4708308 C9.07303809,11.0401643 9.56857376,10.6322155 10.1037388,10.2477929 C10.6393237,9.86337031 11.1343556,9.4400608 11.589926,8.97859199 C12.0453285,8.51688064 12.2730298,8.13237719 12.2730298,7.82467742 C12.2730298,7.6093846 12.217112,7.38988779 12.1053604,7.16683375 C11.9935248,6.94329464 11.8217414,6.67052032 11.589926,6.34721728 C11.3580268,6.02407593 11.2182323,5.83190505 11.1702068,5.77005789 C10.9307511,5.38563529 10.6833191,4.97404844 10.4273231,4.53545904 C10.1713272,4.09695049 9.89190616,3.60815574 9.58813659,3.06964072 C9.28461889,2.53136824 9.0450792,2.11573909 8.86909771,1.82340006 C8.3100878,0.746450862 7.88667432,0.161449407 7.59894122,0.0694466902 C7.4870217,0.02328364 7.31910043,0 7.09559722,0 C6.66387163,0 6.10066369,0.0768036736 5.4055536,0.230896097 C4.71019162,0.384745982 4.16302016,0.546114543 3.7634515,0.715648546 C2.96439814,1.03862821 2.11748721,1.97724994 1.22246684,3.53119038 C0.407460961,4.97736313 0,6.40874107 0,7.82427319 C0,8.23941726 0.0279588914,8.64332374 0.0838766743,9.03607347 C0.139794457,9.42841898 0.239707613,9.87088898 0.383700102,10.3634026 C0.527440709,10.8557546 0.643390345,11.2215018 0.731045248,11.459674 C0.818784112,11.698008 0.982591311,12.1249555 1.22238288,12.7406785 C1.46183861,13.3562397 1.6058311,13.7330628 1.65377263,13.8715519 C2.21303442,15.3796527 2.87623947,16.7259807 3.64321987,17.9109401 C4.90514821,19.8805097 6.6272648,21.9159687 8.80856209,24.0165087 C10.9899433,26.1168871 13.1034004,27.775038 15.1490174,28.990638 C16.3794605,29.7290851 17.7781607,30.3676066 19.3441105,30.9065259 C19.488019,30.9524464 19.8793595,31.0907739 20.5183839,31.322155 C21.1576602,31.5528894 21.6012242,31.7106199 21.8487402,31.7952657 C22.0963401,31.8799922 22.476262,31.9917214 22.9871624,32.1303722 C23.4991544,32.2690231 23.9582511,32.3652298 24.3657121,32.4194774 C24.7734249,32.4725932 25.1929762,32.5 25.6241981,32.5 C27.0941809,32.5 28.5807879,32.107412 30.0829276,31.322721 C31.696567,30.4612263 32.6710981,29.6455713 33.0066888,28.8755942 C33.183174,28.4912525 33.3503396,27.9642176 33.5101167,27.2946512 C33.6703976,26.6254083 33.75,26.0831743 33.75,25.6675452 C33.750496,25.4514439 33.7263993,25.2901562 33.6782059,25.1814992 Z" id="Path"></path>
                </g>
            </g>
        </g>
    </g>
</svg>