<?xml version="1.0" encoding="UTF-8"?>
<svg width="11px" height="10px" viewBox="0 0 11 10" version="1.1" xmlns="http://www.w3.org/2000/svg" xmlns:xlink="http://www.w3.org/1999/xlink">
    <title>Path Copy 5</title>
    <g id="Symbols" stroke="none" stroke-width="1" fill="none" fill-rule="evenodd">
        <g id="Stars" transform="translate(-7.000000, -5.000000)" fill="#F7B500" fill-rule="nonzero">
            <g id="star">
                <path d="M18,8.87518318 C18,8.71974151 17.8766342,8.62313947 17.6297174,8.58528877 L14.3113214,8.12538623 L12.8239625,5.2583117 C12.7402831,5.08607447 12.6322223,5 12.5000347,5 C12.3678703,5 12.259879,5.08607447 12.1761301,5.2583117 L10.6887018,8.12538623 L7.37014366,8.58528877 C7.12341209,8.62313947 7,8.71974151 7,8.87518318 C7,8.96344263 7.05510709,9.06426011 7.16529811,9.17767979 L9.57157922,11.4082888 L9.0030732,14.5588131 C8.99425143,14.6176528 8.98987528,14.6597851 8.98987528,14.6848791 C8.98987528,14.7730944 9.01298321,14.8476261 9.05924538,14.9085845 C9.1054844,14.9696312 9.1748545,15 9.2674483,15 C9.34682103,15 9.43492291,14.974906 9.5318697,14.9244531 L12.4999653,13.4372186 L15.4682692,14.9244531 C15.5609788,14.974906 15.6491038,15 15.732598,15 C15.821024,15 15.8880787,14.9696312 15.9343409,14.9085845 C15.9804641,14.8477144 16.0035952,14.7730944 16.0035952,14.6848791 C16.0035952,14.6303432 16.0013724,14.5883433 15.99695,14.5588131 L15.4283976,11.4082888 L17.8280335,9.17767979 C17.9427859,9.06845348 18,8.96759186 18,8.87518318 Z" id="Path-Copy-5"></path>
            </g>
        </g>
    </g>
</svg>