<?xml version="1.0" encoding="UTF-8"?>
<svg width="52px" height="50px" viewBox="0 0 52 50" version="1.1" xmlns="http://www.w3.org/2000/svg" xmlns:xlink="http://www.w3.org/1999/xlink">
    <title>upload</title>
    <g id="Wireframe" stroke="none" stroke-width="1" fill="none" fill-rule="evenodd">
        <g id="Sign-Up---Carrier-Photo-Copy-2" transform="translate(-161.000000, -162.000000)" fill="#FFFFFF" fill-rule="nonzero">
            <g id="upload" transform="translate(161.000000, 162.000000)">
                <path d="M51.1246827,34.8750539 C50.5422688,34.2915022 49.8334337,34 49.0000379,34 L35.6562922,34 C35.2191261,35.1665561 34.4845688,36.1248025 33.4533866,36.8747392 C32.4217665,37.6247853 31.2710586,38.0000274 30.0004968,38.0000274 L21.9997222,38.0000274 C20.7290508,38.0000274 19.5779051,37.6246759 18.5469418,36.8747392 C17.5155406,36.1248025 16.7814212,35.1666655 16.3439267,34 L2.99996211,34 C2.16678524,34 1.45849734,34.2915022 0.874988949,34.8750539 C0.291590013,35.4579488 0,36.1662892 0,36.9998563 L0,47.0005815 C0,47.8336013 0.291590013,48.5428175 0.874988949,49.1252745 C1.45838789,49.7086073 2.16667579,50 2.99996211,50 L49.0004757,50 C49.8334337,50 50.5422688,49.7086073 51.1250111,49.1252745 C51.7086289,48.5420512 52,47.8336013 52,47.0005815 L52,36.9998563 C52,36.1662892 51.7086289,35.458715 51.1246827,34.8750539 Z M39.4067921,45.4066787 C39.010453,45.8026093 38.5415448,46.0008483 37.9998484,46.0008483 C37.4581521,46.0008483 36.9899006,45.8026093 36.5936709,45.4066787 C36.198098,45.0111858 36.0003115,44.5421333 36.0003115,44.0003968 C36.0003115,43.4586603 36.198098,42.9893888 36.5936709,42.594115 C36.9899006,42.1986221 37.4581521,41.9999453 37.9998484,41.9999453 C38.5415448,41.9999453 39.0103436,42.1985127 39.4067921,42.594115 C39.8022556,42.9892794 40.0001516,43.4586603 40.0001516,44.0003968 C40.0001516,44.5421333 39.8022556,45.0110764 39.4067921,45.4066787 Z M47.4062533,45.4066787 C47.0106804,45.8026093 46.5417721,46.0008483 45.9999663,46.0008483 C45.4583795,46.0008483 44.9897996,45.8026093 44.5937888,45.4066787 C44.1983253,45.0111858 44.0005389,44.5421333 44.0005389,44.0003968 C44.0005389,43.4586603 44.1983253,42.9893888 44.5937888,42.594115 C44.9896901,42.1986221 45.45827,41.9999453 45.9999663,41.9999453 C46.5416626,41.9999453 47.0105709,42.1985127 47.4062533,42.594115 C47.8021546,42.9892794 48.0002694,43.4586603 48.0002694,44.0003968 C48.0002694,44.5421333 47.802483,45.0110764 47.4062533,45.4066787 Z" id="Shape"></path>
                <path d="M12.0277692,17.9999034 L20.0117864,17.9999034 L20.0117864,31.9998648 C20.0117864,32.5414358 20.209396,33.0103304 20.6042874,33.4060012 C20.9993974,33.8014531 21.4672591,34 22.0076541,34 L29.9924359,34 C30.5329402,34 31.000365,33.8015626 31.3958026,33.4060012 C31.7905849,33.0104398 31.987976,32.5415453 31.987976,31.9998648 L31.987976,17.9999034 L39.9722116,17.9999034 C40.8457793,17.9999034 41.4592538,17.5829988 41.8121983,16.7499557 C42.1657982,15.9375992 42.0199669,15.2187151 41.3755783,14.5936318 L27.4031933,0.593889331 C27.0286199,0.197999594 26.5614136,0 25.9998266,0 C25.4387858,0 24.970924,0.197999594 24.5964599,0.593889331 L10.6245118,14.5936318 C9.97979548,15.2187151 9.83440114,15.9371614 10.1876733,16.7499557 C10.5414917,17.5834366 11.1547478,17.9999034 12.0277692,17.9999034 Z" id="Path"></path>
            </g>
        </g>
    </g>
</svg>